<?xml version="1.0" encoding="utf-8"?>
<!-- Generator: Adobe Illustrator 16.0.0, SVG Export Plug-In . SVG Version: 6.00 Build 0)  -->
<!DOCTYPE svg PUBLIC "-//W3C//DTD SVG 1.1//EN" "http://www.w3.org/Graphics/SVG/1.1/DTD/svg11.dtd">
<svg version="1.1" xmlns="http://www.w3.org/2000/svg" xmlns:xlink="http://www.w3.org/1999/xlink" x="0px" y="0px"
	 width="80.167px" height="69px" viewBox="0 0 80.167 69" enable-background="new 0 0 80.167 69" xml:space="preserve">
<g id="Calque_1" display="none">
</g>
<g id="Calque_2">
</g>
<g id="Calque_3">
	<g>
		<path fill="#FF213A" d="M12.392,36.1c-1.521-4.868-1.09-10.052,1.174-14.222c1.984-3.648,5.215-6.244,9.09-7.312
			c3.022-0.832,6.355-0.671,9.433,0.452c2.431,0.889,4.725,2.372,6.635,4.287c2.231,2.239,3.914,5.044,4.877,8.113
			c2.596,8.288-0.595,16.89-7.446,20.433c0.75,0.627,1.57,1.177,2.453,1.629c1.409,0.719,2.938,1.188,4.548,1.39
			c6.86-5.562,9.475-15.606,6.515-25.08c-1.071-3.428-2.762-6.54-5.025-9.255c-1.666-1.995-3.584-3.713-5.726-5.102
			c-3.704-2.403-7.825-3.674-11.933-3.674c-1.756,0-3.501,0.236-5.178,0.697c-5.05,1.392-9.258,4.784-11.852,9.558
			c-3.035,5.563-3.591,12.514-1.538,19.063c3.047,9.754,11.291,16.881,20.424,17.9c-1.986-1.818-3.658-4.021-4.876-6.456
			C18.537,46.564,14.22,41.94,12.392,36.1z"/>
		<path fill="#FF213A" d="M71.174,23.369c-1.602-5.461-5.173-9.854-10.065-12.357c-2.959-1.516-6.217-2.28-9.679-2.28
			c-3.182,0-6.482,0.675-9.613,1.958c1.477,1.125,2.852,2.403,4.084,3.819c1.662-0.45,3.324-0.679,4.978-0.679
			c2.658,0,5.167,0.59,7.443,1.757c3.801,1.948,6.586,5.377,7.842,9.656c1.529,5.228,0.658,11.233-2.397,16.478
			c-2.314,3.978-5.789,7.261-9.752,9.292c0.04,0.004,0.08,0.007,0.126,0.014c2.357,0.239,4.593,0.81,6.482,1.656
			c3.063-2.376,5.61-5.303,7.587-8.702C72.021,37.445,73.097,29.931,71.174,23.369z"/>
		<path fill="#FF213A" d="M59.169,53.588c-2.044-0.735-4.557-1.224-7.255-1.42c-0.828-0.061-1.657-0.09-2.466-0.09
			c-1.708,0-3.324,0.13-4.794,0.389c-0.44-0.016-0.829-0.037-1.191-0.073c-1.96-0.183-3.821-0.719-5.527-1.593
			c-1.541-0.787-2.898-1.818-4.046-3.072c-5.073-5.519-5.511-14.345-1.081-21.963c1.206-2.078,2.705-3.94,4.45-5.533l0.155-0.14
			l-0.155-0.14c-1.571-1.483-3.432-2.667-5.355-3.42l-0.119-0.048l-0.086,0.089c-1.87,1.881-3.5,4.007-4.837,6.314
			c-4.633,7.967-5.29,17.148-1.772,24.562c1.666,3.482,4.219,6.41,7.39,8.461c0.597,0.386,1.206,0.733,1.81,1.044
			c2.168,1.11,4.521,1.84,7.01,2.167c2.202,1.163,5.537,1.984,9.152,2.247c0.831,0.061,1.666,0.09,2.476,0.09h0.009
			c5.949,0,10.358-1.55,10.72-3.768C63.905,56.187,62.27,54.692,59.169,53.588z M54.981,57.264c-0.724,0-1.312-0.588-1.312-1.316
			c0-0.727,0.588-1.314,1.312-1.314c0.725,0,1.319,0.588,1.319,1.314C56.301,56.675,55.706,57.264,54.981,57.264z"/>
	</g>
</g>
</svg>
