<?xml version="1.0" encoding="utf-8"?>
<!-- Generator: Adobe Illustrator 16.0.0, SVG Export Plug-In . SVG Version: 6.00 Build 0)  -->
<!DOCTYPE svg PUBLIC "-//W3C//DTD SVG 1.1//EN" "http://www.w3.org/Graphics/SVG/1.1/DTD/svg11.dtd">
<svg version="1.1" xmlns="http://www.w3.org/2000/svg" xmlns:xlink="http://www.w3.org/1999/xlink" x="0px" y="0px"
	 width="232.25px" height="62.75px" viewBox="0 0 232.25 62.75" enable-background="new 0 0 232.25 62.75" xml:space="preserve">
<g id="Calque_1" display="none">
</g>
<g id="Calque_2">
</g>
<g id="Calque_3">
	<g>
		<g>
			<path fill="#FF213A" d="M12.387,32.434c-1.35-4.324-0.967-8.929,1.043-12.633c1.764-3.24,4.633-5.547,8.074-6.495
				c2.686-0.739,5.646-0.597,8.379,0.401c2.16,0.79,4.197,2.106,5.895,3.808c1.982,1.989,3.477,4.48,4.332,7.206
				c2.307,7.362-0.529,15.003-6.613,18.15c0.666,0.557,1.395,1.046,2.178,1.447c1.252,0.638,2.609,1.055,4.041,1.235
				c6.094-4.94,8.416-13.862,5.787-22.277c-0.951-3.045-2.453-5.81-4.465-8.221c-1.479-1.772-3.184-3.299-5.086-4.532
				c-3.289-2.135-6.949-3.263-10.6-3.263c-1.561,0-3.109,0.209-4.6,0.619c-4.486,1.236-8.223,4.25-10.527,8.49
				c-2.695,4.942-3.191,11.116-1.367,16.934c2.707,8.665,10.029,14.995,18.143,15.9c-1.764-1.615-3.25-3.572-4.332-5.735
				C17.846,41.729,14.012,37.622,12.387,32.434z"/>
			<path fill="#FF213A" d="M64.602,21.126c-1.422-4.852-4.596-8.753-8.939-10.977c-2.629-1.347-5.523-2.025-8.598-2.025
				c-2.828,0-5.758,0.599-8.539,1.74c1.311,0.999,2.533,2.135,3.627,3.392c1.477-0.399,2.953-0.603,4.422-0.603
				c2.361,0,4.59,0.523,6.611,1.561c3.377,1.73,5.852,4.776,6.967,8.577c1.357,4.644,0.584,9.978-2.129,14.637
				c-2.057,3.533-5.143,6.449-8.664,8.253c0.035,0.003,0.072,0.006,0.113,0.012c2.092,0.212,4.078,0.72,5.758,1.471
				c2.721-2.11,4.982-4.71,6.738-7.729C65.354,33.629,66.311,26.955,64.602,21.126z"/>
			<path fill="#FF213A" d="M53.938,47.969c-1.816-0.653-4.047-1.087-6.445-1.262c-0.734-0.054-1.471-0.08-2.189-0.08
				c-1.518,0-2.953,0.116-4.26,0.345c-0.391-0.013-0.734-0.032-1.057-0.064c-1.742-0.162-3.395-0.638-4.91-1.415
				c-1.369-0.7-2.574-1.615-3.594-2.729c-4.506-4.902-4.896-12.743-0.961-19.509c1.072-1.847,2.402-3.5,3.953-4.915l0.139-0.125
				l-0.139-0.124c-1.395-1.317-3.049-2.369-4.756-3.038l-0.107-0.042l-0.076,0.079c-1.66,1.671-3.109,3.56-4.297,5.608
				c-4.115,7.077-4.699,15.233-1.574,21.818c1.48,3.094,3.746,5.694,6.564,7.516c0.531,0.342,1.072,0.651,1.607,0.928
				c1.926,0.986,4.016,1.634,6.227,1.924c1.957,1.033,4.92,1.763,8.131,1.996c0.738,0.054,1.479,0.081,2.199,0.081H48.4
				c5.283,0,9.201-1.377,9.521-3.347C58.145,50.276,56.691,48.949,53.938,47.969z M50.219,51.233c-0.645,0-1.166-0.522-1.166-1.169
				c0-0.645,0.521-1.167,1.166-1.167c0.643,0,1.172,0.522,1.172,1.167C51.391,50.711,50.861,51.233,50.219,51.233z"/>
		</g>
		<path fill="#FF213A" d="M185.092,41.015c0,0.934-0.756,1.688-1.688,1.688c-0.936,0-1.688-0.755-1.688-1.688
			c0-0.932,0.752-1.69,1.688-1.69C184.336,39.325,185.092,40.083,185.092,41.015z"/>
		<g>
			<g>
				<g>
					<g>
						<path fill="#FFFFFF" d="M73.076,7.738h9.068c7.094,0,10.598,4.077,10.598,12.042c0,8.013-3.504,12.041-10.598,12.041h-1.488
							v10.89h-7.58V7.738z M80.656,14.407v10.794h1.242c2.447,0,3.17-1.969,3.17-5.519c0-4.029-1.104-5.275-3.17-5.275H80.656z"/>
					</g>
				</g>
				<g>
					<g>
						<path fill="#FFFFFF" d="M99.027,29.42l-7.1-21.682h8.299l2.592,13.914h0.287l2.732-13.914h8.203l-7.053,21.682v13.29h-7.961
							V29.42z"/>
					</g>
				</g>
				<g>
					<g>
						<path fill="#FFFFFF" d="M112.984,25.201c0-11.42,2.541-17.942,10.648-17.942c6.381,0,9.691,3.597,10.123,12.954h-7.197
							c-0.283-4.417-0.865-6.333-2.926-6.333c-2.445,0-2.975,3.741-2.975,11.321c0,8.06,0.676,11.322,2.975,11.322
							c2.16,0,2.688-2.206,2.926-6.525h7.197c-0.287,9.597-3.838,13.146-10.65,13.146C115.482,43.144,112.984,36.667,112.984,25.201
							z"/>
					</g>
				</g>
				<g>
					<g>
						<path fill="#FFFFFF" d="M136.105,25.201c0-11.514,2.588-17.942,10.645-17.942c8.068,0,10.607,6.474,10.607,17.942
							c0,11.513-2.539,17.943-10.607,17.943C138.693,43.144,136.105,36.761,136.105,25.201z M149.729,25.201
							c0-8.155-0.719-11.321-2.979-11.321c-2.441,0-2.973,3.741-2.973,11.321c0,8.106,0.676,11.322,2.973,11.322
							C149.252,36.523,149.729,32.683,149.729,25.201z"/>
					</g>
				</g>
				<g>
					<g>
						<path fill="#FFFFFF" d="M159.752,7.738h8.107l4.797,19.524h0.336l-0.383-10.407V7.738h6.957v34.972h-8.012l-4.939-19.331
							h-0.287l0.383,10.025v9.306h-6.959V7.738z"/>
					</g>
				</g>
			</g>
		</g>
		<g>
			<path fill="#FFFFFF" d="M187.223,7.814h15.252v6.669h-7.387v8.394h6.479v6.334h-6.479v13.574h-7.865V7.814z"/>
			<path fill="#FFFFFF" d="M204.539,7.814h9.211c6.381,0,10.6,2.448,10.6,10.028c0,4.509-1.58,7.387-4.027,8.3v0.334
				c2.588,0.481,3.498,3.407,3.498,7.053v5.71c0,1.438,0.098,2.492,0.338,3.547h-7.676c-0.289-1.007-0.381-2.397-0.381-3.116v-5.373
				c0-2.16-0.293-4.03-2.018-4.03h-1.967v12.519h-7.578V7.814z M213.361,24.317c2.641,0,3.359-1.87,3.359-4.94
				c0-3.455-0.959-4.894-3.404-4.894h-1.199v9.834H213.361z"/>
		</g>
	</g>
</g>
</svg>
