<?xml version="1.0" encoding="utf-8"?>
<!-- Generator: Adobe Illustrator 24.2.1, SVG Export Plug-In . SVG Version: 6.00 Build 0)  -->
<svg version="1.1"
	 id="Calque_1" xmlns:cc="http://creativecommons.org/ns#" xmlns:dc="http://purl.org/dc/elements/1.1/" xmlns:rdf="http://www.w3.org/1999/02/22-rdf-syntax-ns#" xmlns:svg="http://www.w3.org/2000/svg"
	 xmlns="http://www.w3.org/2000/svg" xmlns:xlink="http://www.w3.org/1999/xlink" x="0px" y="0px" viewBox="0 0 125 31.8"
	 style="enable-background:new 0 0 125 31.8;" xml:space="preserve">
<style type="text/css">
	.st0{fill:#FFFFFF;}
	.st1{fill:#FF2A35;}
</style>
<g>
	<g>
		<path class="st0" d="M40.3,12.2c0-2.6-1-5.1-2.9-7l0,0c-1.9-1.9-4.3-2.9-7-2.9c-2.7,0-5.1,1-7,2.9l-1.2,1.2l-1,0.8l-0.6-0.6
			l-1.3-1.4c-1.9-1.9-4.4-2.9-7-2.9l0,1.2h0h0V2.2c-2.6,0-5.1,1-7,2.9c-1.9,1.9-2.9,4.4-2.9,7c0,2.6,1,5.1,2.9,7l2.1,2.1
			c0,0,0,0,0,0l-0.4,0.2l-0.2,0.5c-0.8,1.6-0.6,3,0.5,4.2c0.6,0.7,1.6,1.1,2.5,1.1c0.6,0,1.2-0.1,1.7-0.4l0.5-0.3l0-0.3
			c0,0,0-0.1,0.1-0.1l0.9,0.8c2.3,2,5.2,3,8.3,3c3,0,5.8-1,8.1-2.9l1-0.8l0.3,0.3l0.2,0.1c0.1,0,0.1,0,0.2,0.1
			c0.4,0.2,1.1,0.5,1.9,0.5c0.9,0,1.7-0.3,2.4-1c1.3-1.3,1.2-2.9,0.7-4L35.9,22l-0.7-0.7l2.1-2.1C39.3,17.3,40.3,14.8,40.3,12.2z
			 M15.7,12.9c-0.2,0.1-0.6,0.6-2.9,2.9c-0.3,0.3-0.6,0.6-0.9,0.9l0.4-0.4l-2.1-2.1c-0.5-0.5-0.8-1.3-0.8-2c0-0.8,0.3-1.5,0.9-2.1
			c1.1-1.1,3-1,4.1,0l1.2,1.2c0,0,0.1,0.1,0.1,0.2l0.8,0.8L15.7,12.9z M24.5,21.9c-0.1,0.1-0.1,0.1-0.2,0.2c-1.8,1-4.1,1-5.8,0
			c-0.1-0.1-0.2-0.2-0.3-0.3l-0.8-1c0.1-0.1,0.2-0.2,0.3-0.3c2.5-2.5,2.8-2.7,2.9-2.9l0.5-0.8l0.8,0.8l0.2,0.1
			c0.1,0,0.1,0.1,0.2,0.1l2.3,2.3c0,0,0.1,0.1,0.1,0.2l0.7,0.7L24.5,21.9z M26,12l0.3,0.2l2.1-2.1c1.1-1.1,2.9-1.1,4.1,0
			c0.5,0.5,0.8,1.3,0.8,2c0,0.8-0.3,1.5-0.8,2l-1.2,1.2l-1,0.9L26,12z"/>
		<g>
			<circle class="st1" cx="33.3" cy="24.1" r="0.9"/>
			<polygon class="st1" points="12.6,16.3 16.6,12.3 13.5,9.4 10.8,9.6 9.7,11.4 9.9,14.2 			"/>
			<polygon class="st1" points="26.5,12.3 30.9,16.6 33,14.9 33.7,12.3 32.8,10.1 31.7,9.4 29.6,9.6 			"/>
			<polygon class="st1" points="17.8,21.9 21.3,23.2 23.4,23.2 25.7,21.6 21.6,17.5 			"/>
			<g>
				<g>
					<path class="st1" d="M41.6,12.3c0-2.9-1.1-5.5-3.1-7.6l0,0c-4.2-4.2-11-4.2-15.2,0l-1.6,1.6l-1.6-1.6c-4.2-4.2-11-4.2-15.2,0
						c-2,2-3.1,4.7-3.1,7.6c0,2.9,1.1,5.6,3.1,7.6l1.6,1.6l-0.2,0.3C6.2,22,4.7,24.7,6.9,27c1.9,1.9,4.2,1.3,5.2,0.7l0.3-0.2
						l0.3,0.2c2.5,2.1,5.6,3.3,8.9,3.3c3.3,0,6.5-1.2,8.9-3.3l0.3-0.2l0.3,0.2c1,0.6,3.3,1.2,5.2-0.6c2.3-2.3,0.7-5,0.7-5.1
						l-0.2-0.3l1.6-1.6C40.4,17.9,41.6,15.2,41.6,12.3z M12,26.1c-0.6,0.6-1.3,0.8-1.9,0.8c-0.9,0-1.7-0.4-2.1-0.8l0,0l0.4-0.3
						L8,26.1c-0.5-0.5-0.8-1.3-0.8-2c0-0.8,0.3-1.5,0.8-2l8.7-8.7l4,4L12,26.1z M12.5,15.5l-1.6-1.6c-0.4-0.4-0.7-1-0.7-1.6
						c0-0.6,0.2-1.2,0.7-1.6c0.9-0.9,2.3-0.9,3.2,0l1.6,1.6L12.5,15.5z M21.6,18.3l3.2,3.2l-0.6,0.3c-0.8,0.5-1.7,0.7-2.6,0.7
						c-0.9,0-1.8-0.2-2.6-0.7l-0.6-0.3L21.6,18.3z M29.4,26.9c-2.2,1.8-4.9,2.8-7.8,2.8s-5.6-1-7.8-2.8l-0.4-0.3l4-4l0.3,0.2
						c1.1,0.8,2.5,1.2,3.8,1.2c1.3,0,2.7-0.4,3.8-1.2l0.3-0.2l4,4L29.4,26.9z M35.3,26L35.3,26c-0.6,0.6-1.3,0.8-2,0.8
						c-0.7,0-1.5-0.3-2-0.8L15,9.8c-1.4-1.4-3.7-1.4-5.2,0c-1.4,1.4-1.4,3.8,0,5.2l1.6,1.6l-4,4L5.9,19c-1.8-1.8-2.7-4.1-2.7-6.6
						c0-2.5,1-4.8,2.7-6.6c3.7-3.6,9.6-3.6,13.2,0c0,0,16,16,16.3,16.3c0.5,0.5,0.8,1.3,0.8,2C36.2,24.8,35.9,25.5,35.3,26z
						 M27.6,12.3l1.6-1.6c0.9-0.9,2.3-0.9,3.2,0c0.4,0.4,0.7,1,0.7,1.6c0,0.6-0.2,1.2-0.7,1.6l-1.6,1.6L27.6,12.3z M35.8,20.5l-4-4
						l1.6-1.6c1.4-1.4,1.4-3.7,0-5.1c-1.4-1.4-3.8-1.4-5.2,0l-1.6,1.6l-4-4l1.6-1.6c3.6-3.6,9.5-3.6,13.2,0l0,0
						c1.8,1.8,2.7,4.1,2.7,6.6c0,2.5-1,4.8-2.7,6.6L35.8,20.5z"/>
				</g>
			</g>
		</g>
	</g>
	<g>
		<g>
			<path d="M56,5.6c1.1,0,2.1,0.5,3,1.4c0.9,0.9,1.3,2.1,1.3,3.5c0,1.4-0.4,2.6-1.3,3.5c-0.9,0.9-1.9,1.4-3.1,1.4S53.8,15,53.1,14
				v4.7h-2.7v-13h2.7v1.1C53.9,6,54.9,5.6,56,5.6z M53.1,10.5c0,0.8,0.2,1.4,0.6,1.9c0.4,0.5,1,0.7,1.6,0.7c0.6,0,1.2-0.2,1.6-0.7
				c0.5-0.5,0.7-1.1,0.7-1.9c0-0.8-0.2-1.4-0.7-1.9c-0.5-0.5-1-0.8-1.6-0.8c-0.6,0-1.2,0.3-1.6,0.8C53.3,9.1,53.1,9.7,53.1,10.5z"/>
			<path d="M63.7,19c-0.9,0-1.8-0.4-2.6-1.1l1.2-2c0.4,0.4,0.9,0.7,1.4,0.7c0.2,0,0.5-0.1,0.6-0.4c0.2-0.2,0.3-0.5,0.3-0.8
				c0-0.3-1.2-3.5-3.7-9.7h2.8l2.3,6l2.3-6h2.8L66.8,17c-0.3,0.7-0.7,1.2-1.2,1.5C65,18.9,64.4,19,63.7,19z"/>
			<path d="M77.1,13.1c0.9,0,1.7-0.4,2.4-1.3l1.6,1.8c-1.2,1.3-2.6,1.9-4,1.9c-1.4,0-2.6-0.5-3.6-1.4c-1-0.9-1.5-2.1-1.5-3.6
				c0-1.5,0.5-2.7,1.5-3.6c1-0.9,2.2-1.4,3.6-1.4c0.7,0,1.4,0.1,2.1,0.4c0.7,0.3,1.3,0.7,1.9,1.3l-1.4,1.8c-0.3-0.4-0.7-0.7-1.1-0.9
				c-0.4-0.2-0.9-0.3-1.3-0.3c-0.7,0-1.3,0.2-1.8,0.7c-0.5,0.5-0.8,1.1-0.8,1.9s0.3,1.4,0.8,1.9C75.9,12.8,76.5,13.1,77.1,13.1z"/>
			<path d="M92.3,10.5c0,1.4-0.5,2.6-1.4,3.5c-1,0.9-2.2,1.4-3.6,1.4c-1.5,0-2.7-0.5-3.6-1.4c-1-0.9-1.4-2.1-1.4-3.5
				s0.5-2.6,1.4-3.5c1-1,2.2-1.4,3.6-1.4c1.5,0,2.7,0.5,3.6,1.4C91.8,7.9,92.3,9.1,92.3,10.5z M84.9,10.5c0,0.8,0.2,1.4,0.7,1.9
				c0.4,0.5,1,0.7,1.7,0.7s1.3-0.2,1.7-0.7c0.4-0.5,0.7-1.1,0.7-1.9c0-0.8-0.2-1.4-0.7-1.9c-0.4-0.5-1-0.7-1.7-0.7S86,8.1,85.5,8.6
				C85.1,9.1,84.9,9.7,84.9,10.5z"/>
			<path d="M96.9,10v5.3h-2.7V5.7h2.7v1.1c0.8-0.8,1.7-1.2,2.7-1.2c1,0,1.8,0.4,2.5,1.1c0.7,0.7,1,1.7,1,2.8v5.8h-2.7V9.9
				c0-1.5-0.5-2.2-1.6-2.2c-0.5,0-1,0.2-1.4,0.6C97.1,8.6,96.9,9.2,96.9,10z"/>
			<path d="M105.8,15c-0.3-0.3-0.5-0.7-0.5-1.1c0-0.4,0.2-0.8,0.5-1.1s0.7-0.5,1.1-0.5c0.4,0,0.8,0.2,1.1,0.5s0.5,0.7,0.5,1.1
				c0,0.4-0.2,0.8-0.5,1.1c-0.3,0.3-0.7,0.5-1.1,0.5C106.5,15.4,106.1,15.3,105.8,15z"/>
			<path d="M113.8,5.2v0.6h2.3v1.9h-2.3v7.5h-2.7V7.7H110V5.8h1.1V5.2c0-1,0.3-1.9,1-2.5s1.4-0.9,2.4-0.9c0.9,0,1.8,0.4,2.6,1.1
				l-1,1.8c-0.4-0.5-0.8-0.7-1.3-0.7c-0.3,0-0.5,0.1-0.7,0.3C113.9,4.5,113.8,4.8,113.8,5.2z"/>
			<path d="M122.8,8.1c-0.8,0-1.4,0.3-1.8,0.8c-0.4,0.6-0.6,1.3-0.6,2.2v4.1h-2.7V5.7h2.7V7c0.3-0.4,0.8-0.7,1.3-1
				c0.5-0.3,1-0.4,1.6-0.4l0,2.5H122.8z"/>
			<path class="st1" d="M51,25.6c0.3,0.4,0.5,0.6,0.8,0.8c0.3,0.2,0.6,0.3,1.1,0.3c0.2,0,0.4,0,0.6-0.1c0.2-0.1,0.3-0.2,0.5-0.3
				c0.1-0.1,0.2-0.3,0.2-0.5c0-0.3-0.1-0.5-0.4-0.7c-0.3-0.2-0.6-0.3-1.1-0.4c-0.6-0.1-1.1-0.3-1.4-0.6c-0.4-0.3-0.5-0.7-0.5-1.3
				c0-0.4,0.1-0.7,0.3-1c0.2-0.3,0.5-0.5,0.8-0.6c0.3-0.1,0.7-0.2,1.1-0.2c0.5,0,0.9,0.1,1.3,0.3c0.4,0.2,0.7,0.5,0.9,0.8l-0.7,0.7
				c-0.2-0.3-0.4-0.5-0.6-0.7c-0.3-0.2-0.5-0.3-0.9-0.3c-0.3,0-0.6,0.1-0.8,0.2c-0.2,0.2-0.3,0.4-0.3,0.6c0,0.3,0.1,0.5,0.4,0.7
				c0.2,0.1,0.6,0.3,1,0.3c0.4,0.1,0.7,0.2,1,0.3c0.3,0.2,0.6,0.4,0.8,0.6c0.2,0.2,0.3,0.5,0.3,0.9c0,0.6-0.2,1.1-0.6,1.5
				c-0.4,0.4-1,0.5-1.7,0.5c-0.5,0-0.9-0.1-1.4-0.3c-0.4-0.2-0.8-0.5-1.1-1L51,25.6z"/>
			<path class="st1" d="M57.8,27.5h-0.9v-3.9h-1v-0.9h1v-1.2h0.9v1.2h1.1v0.9h-1.1V27.5z"/>
			<path class="st1" d="M62.5,23.7c-0.1,0-0.1-0.1-0.2-0.1c-0.1,0-0.2,0-0.3,0c-0.2,0-0.4,0.1-0.6,0.2c-0.2,0.1-0.3,0.2-0.5,0.4
				c-0.1,0.2-0.2,0.4-0.2,0.7v2.7h-1v-4.8h1v0.9c0.1-0.3,0.3-0.5,0.6-0.7c0.3-0.2,0.6-0.3,0.9-0.3c0.2,0,0.4,0,0.5,0.1L62.5,23.7z"
				/>
			<path class="st1" d="M67.7,22.7v4.8h-1v-0.7c-0.1,0.2-0.4,0.4-0.7,0.6c-0.3,0.2-0.6,0.3-1,0.3c-0.4,0-0.8-0.1-1.1-0.3
				c-0.3-0.2-0.6-0.5-0.8-0.9c-0.2-0.4-0.3-0.8-0.3-1.3c0-0.5,0.1-0.9,0.3-1.3c0.2-0.4,0.5-0.7,0.8-0.9c0.4-0.2,0.8-0.3,1.2-0.3
				c0.3,0,0.6,0.1,0.9,0.2c0.3,0.1,0.5,0.3,0.6,0.5v-0.6H67.7z M65.4,26.8c0.3,0,0.6-0.1,0.8-0.2c0.2-0.1,0.4-0.3,0.5-0.6
				c0.1-0.2,0.2-0.5,0.2-0.8c0-0.3-0.1-0.6-0.2-0.8c-0.1-0.2-0.3-0.4-0.5-0.6c-0.2-0.1-0.5-0.2-0.8-0.2c-0.3,0-0.5,0.1-0.8,0.2
				c-0.2,0.1-0.4,0.3-0.5,0.6c-0.1,0.2-0.2,0.5-0.2,0.8c0,0.3,0.1,0.6,0.2,0.8c0.1,0.2,0.3,0.4,0.5,0.6
				C64.8,26.7,65.1,26.8,65.4,26.8z"/>
			<path class="st1" d="M71.8,24c-0.2-0.2-0.4-0.3-0.6-0.4c-0.2-0.1-0.4-0.2-0.6-0.2c-0.1,0-0.3,0-0.4,0c-0.1,0-0.2,0.1-0.3,0.2
				c-0.1,0.1-0.1,0.2-0.1,0.4c0,0.2,0.1,0.4,0.3,0.5c0.2,0.1,0.4,0.2,0.7,0.2c0.3,0.1,0.5,0.2,0.7,0.3c0.2,0.1,0.4,0.2,0.6,0.4
				c0.2,0.2,0.2,0.5,0.2,0.8c0,0.3-0.1,0.6-0.3,0.8c-0.2,0.2-0.4,0.4-0.7,0.5c-0.3,0.1-0.5,0.2-0.8,0.2c-0.3,0-0.7-0.1-1-0.2
				c-0.3-0.1-0.6-0.3-0.9-0.6l0.6-0.6c0.2,0.2,0.4,0.3,0.6,0.4s0.5,0.2,0.8,0.2c0.1,0,0.2,0,0.3-0.1c0.1,0,0.2-0.1,0.3-0.2
				c0.1-0.1,0.1-0.2,0.1-0.4c0-0.1,0-0.3-0.1-0.3c-0.1-0.1-0.2-0.2-0.4-0.2c-0.1-0.1-0.3-0.1-0.5-0.1c-0.3-0.1-0.5-0.2-0.8-0.3
				c-0.3-0.1-0.5-0.3-0.6-0.5c-0.2-0.2-0.3-0.5-0.3-0.8c0-0.3,0.1-0.5,0.2-0.7c0.2-0.2,0.4-0.4,0.6-0.5s0.5-0.2,0.8-0.2
				c0.3,0,0.6,0.1,0.9,0.2c0.3,0.1,0.6,0.3,0.8,0.6L71.8,24z"/>
			<path class="st1" d="M76,22.6c0.4,0,0.8,0.1,1.2,0.3c0.3,0.2,0.6,0.5,0.8,0.9c0.2,0.4,0.3,0.8,0.3,1.3c0,0.5-0.1,0.9-0.3,1.3
				c-0.2,0.4-0.5,0.7-0.8,0.9c-0.3,0.2-0.7,0.3-1.1,0.3c-0.3,0-0.7-0.1-0.9-0.2c-0.3-0.2-0.5-0.3-0.7-0.5v0.6h-0.9v-6.8h0.9v2.7
				c0.1-0.2,0.4-0.4,0.6-0.6C75.3,22.7,75.6,22.6,76,22.6z M75.8,23.5c-0.3,0-0.5,0.1-0.8,0.2c-0.2,0.1-0.4,0.3-0.5,0.6
				c-0.1,0.2-0.2,0.5-0.2,0.8c0,0.3,0.1,0.6,0.2,0.8c0.1,0.2,0.3,0.4,0.5,0.6c0.2,0.1,0.5,0.2,0.8,0.2c0.3,0,0.5-0.1,0.8-0.2
				c0.2-0.1,0.4-0.3,0.5-0.6c0.1-0.2,0.2-0.5,0.2-0.8c0-0.3-0.1-0.6-0.2-0.8c-0.1-0.2-0.3-0.4-0.5-0.6
				C76.4,23.5,76.1,23.5,75.8,23.5z"/>
			<path class="st1" d="M83.9,25.1c0,0.5-0.1,0.9-0.3,1.3c-0.2,0.4-0.5,0.7-0.9,0.9c-0.4,0.2-0.8,0.3-1.2,0.3
				c-0.5,0-0.9-0.1-1.2-0.3c-0.4-0.2-0.7-0.5-0.9-0.9C79.1,26,79,25.6,79,25.1c0-0.5,0.1-0.9,0.3-1.3c0.2-0.4,0.5-0.7,0.9-0.9
				s0.8-0.3,1.2-0.3c0.5,0,0.9,0.1,1.2,0.3c0.4,0.2,0.7,0.5,0.9,0.9C83.8,24.2,83.9,24.6,83.9,25.1z M82.9,25.1
				c0-0.3-0.1-0.6-0.2-0.9c-0.1-0.2-0.3-0.4-0.5-0.6c-0.2-0.1-0.5-0.2-0.8-0.2s-0.5,0.1-0.8,0.2c-0.2,0.1-0.4,0.3-0.5,0.6
				c-0.1,0.2-0.2,0.5-0.2,0.9c0,0.3,0.1,0.6,0.2,0.8s0.3,0.4,0.5,0.6c0.2,0.1,0.5,0.2,0.8,0.2s0.5-0.1,0.8-0.2
				c0.2-0.1,0.4-0.3,0.5-0.6C82.9,25.7,82.9,25.4,82.9,25.1z"/>
			<path class="st1" d="M88.2,25.6v-2.9h0.9v4.8h-0.9v-0.8c-0.1,0.2-0.3,0.4-0.6,0.6c-0.3,0.2-0.6,0.3-1,0.3c-0.5,0-0.9-0.2-1.2-0.5
				c-0.3-0.3-0.5-0.8-0.5-1.4v-3h0.9v2.7c0,0.2,0,0.5,0.1,0.7c0.1,0.2,0.2,0.4,0.4,0.5c0.2,0.1,0.4,0.2,0.6,0.2
				c0.3,0,0.6-0.1,0.9-0.3C88.1,26.3,88.2,26,88.2,25.6z"/>
			<path class="st1" d="M93.2,23.7c-0.1,0-0.1-0.1-0.2-0.1c-0.1,0-0.2,0-0.3,0c-0.2,0-0.4,0.1-0.6,0.2c-0.2,0.1-0.3,0.2-0.5,0.4
				c-0.1,0.2-0.2,0.4-0.2,0.7v2.7h-1v-4.8h1v0.9c0.1-0.3,0.3-0.5,0.6-0.7c0.3-0.2,0.6-0.3,0.9-0.3c0.2,0,0.4,0,0.5,0.1L93.2,23.7z"
				/>
			<path class="st1" d="M94.7,28.3c0.2,0.1,0.4,0.3,0.7,0.3c0.3,0.1,0.5,0.1,0.8,0.1c0.5,0,0.9-0.1,1.1-0.4c0.3-0.2,0.4-0.6,0.4-1.1
				v-0.6c-0.1,0.1-0.2,0.3-0.4,0.4c-0.2,0.1-0.3,0.2-0.6,0.3s-0.4,0.1-0.7,0.1c-0.4,0-0.9-0.1-1.2-0.3c-0.4-0.2-0.6-0.5-0.9-0.9
				c-0.2-0.4-0.3-0.8-0.3-1.3c0-0.5,0.1-0.9,0.3-1.3c0.2-0.4,0.5-0.7,0.8-0.9s0.8-0.3,1.2-0.3c0.4,0,0.7,0.1,1,0.2
				c0.3,0.2,0.5,0.3,0.6,0.5v-0.7h0.9v4.5c0,0.6-0.1,1-0.3,1.4c-0.2,0.4-0.5,0.6-0.9,0.8c-0.4,0.2-0.8,0.2-1.2,0.2
				c-0.3,0-0.7-0.1-1-0.2c-0.3-0.1-0.6-0.2-0.8-0.4L94.7,28.3z M96.2,23.5c-0.3,0-0.6,0.1-0.8,0.2c-0.2,0.1-0.4,0.3-0.5,0.6
				c-0.1,0.2-0.2,0.5-0.2,0.8c0,0.3,0.1,0.6,0.2,0.8s0.3,0.4,0.5,0.6c0.2,0.1,0.5,0.2,0.8,0.2c0.3,0,0.6-0.1,0.8-0.2
				c0.2-0.1,0.4-0.3,0.5-0.6c0.1-0.2,0.2-0.5,0.2-0.8c0-0.3-0.1-0.6-0.2-0.8c-0.1-0.2-0.3-0.4-0.5-0.6
				C96.8,23.5,96.5,23.5,96.2,23.5z"/>
			<path class="st1" d="M106.6,26.6v1h-3.9l-0.3-0.8l2-2.2c0.3-0.3,0.5-0.6,0.7-0.8c0.2-0.3,0.3-0.6,0.3-0.9c0-0.3-0.1-0.5-0.3-0.7
				c-0.2-0.2-0.4-0.2-0.7-0.2c-0.1,0-0.3,0-0.5,0.1c-0.2,0.1-0.3,0.2-0.5,0.4c-0.2,0.2-0.3,0.4-0.4,0.7l-0.8-0.5
				c0.2-0.6,0.5-1,0.9-1.3c0.4-0.3,0.9-0.4,1.3-0.4c0.3,0,0.7,0.1,0.9,0.2c0.3,0.1,0.5,0.3,0.7,0.6c0.2,0.3,0.2,0.6,0.2,0.9
				c0,0.4-0.1,0.8-0.4,1.3c-0.3,0.4-0.6,0.8-0.9,1.2l-1.2,1.3H106.6z"/>
			<path class="st1" d="M109.7,27.6c-0.5,0-0.9-0.1-1.3-0.4c-0.4-0.3-0.6-0.7-0.8-1.2c-0.2-0.5-0.3-1.1-0.3-1.7
				c0-0.6,0.1-1.2,0.3-1.7c0.2-0.5,0.4-0.9,0.8-1.2c0.4-0.3,0.8-0.4,1.3-0.4c0.5,0,1,0.1,1.3,0.4c0.3,0.3,0.6,0.7,0.8,1.2
				c0.2,0.5,0.3,1.1,0.3,1.7c0,0.6-0.1,1.2-0.3,1.7c-0.2,0.5-0.4,0.9-0.8,1.2C110.7,27.5,110.2,27.6,109.7,27.6z M109.7,26.7
				c0.4,0,0.8-0.2,1-0.6c0.2-0.4,0.4-1,0.4-1.8c0-0.8-0.1-1.4-0.4-1.8c-0.2-0.4-0.6-0.6-1-0.6c-0.4,0-0.8,0.2-1,0.6
				c-0.2,0.4-0.4,1-0.4,1.8c0,0.8,0.1,1.4,0.4,1.8C108.9,26.5,109.3,26.7,109.7,26.7z"/>
			<path class="st1" d="M117.3,26.6v1h-3.9l-0.3-0.8l2-2.2c0.3-0.3,0.5-0.6,0.7-0.8c0.2-0.3,0.3-0.6,0.3-0.9c0-0.3-0.1-0.5-0.3-0.7
				c-0.2-0.2-0.4-0.2-0.7-0.2c-0.1,0-0.3,0-0.5,0.1c-0.2,0.1-0.3,0.2-0.5,0.4c-0.2,0.2-0.3,0.4-0.4,0.7l-0.8-0.5
				c0.2-0.6,0.5-1,0.9-1.3c0.4-0.3,0.9-0.4,1.3-0.4c0.3,0,0.7,0.1,0.9,0.2c0.3,0.1,0.5,0.3,0.7,0.6c0.2,0.3,0.2,0.6,0.2,0.9
				c0,0.4-0.1,0.8-0.4,1.3c-0.3,0.4-0.6,0.8-0.9,1.2l-1.2,1.3H117.3z"/>
			<path class="st1" transform="translate(5, -1)" d="M117.3,26.6v1h-3.9l-0.3-0.8l2-4.6
				l1,0l-2.2,4.5H117.3zm-1.8-1h0.7v3.2h-1z"/>
		</g>
	</g>
</g>
</svg>
