<?xml version="1.0" encoding="utf-8"?>
<!-- Generator: Adobe Illustrator 16.0.0, SVG Export Plug-In . SVG Version: 6.00 Build 0)  -->
<!DOCTYPE svg PUBLIC "-//W3C//DTD SVG 1.1//EN" "http://www.w3.org/Graphics/SVG/1.1/DTD/svg11.dtd">
<svg version="1.1" xmlns="http://www.w3.org/2000/svg" xmlns:xlink="http://www.w3.org/1999/xlink" x="0px" y="0px"
	 viewBox="0 0 229.75 91.5" enable-background="new 0 0 229.75 91.5" xml:space="preserve">
<g id="Calque_1" display="none">
</g>
<g id="Calque_2">
</g>
<g id="Calque_3">
	<g>
		<g>
			<path fill="#FF213A" d="M73.401,13.492h1.533c-0.012,0.926,0.63,1.544,1.619,1.544c0.987,0,1.631-0.556,1.631-1.446
				c0-0.877-0.594-1.322-1.444-1.322h-1.052v-1.174h0.939c0.927,0,1.422-0.543,1.422-1.286c0-0.803-0.582-1.26-1.472-1.26
				c-0.977,0-1.557,0.593-1.569,1.507h-1.532c0.012-1.717,1.248-2.83,3.163-2.83c1.804,0,2.991,0.927,2.991,2.373
				c0,0.977-0.532,1.717-1.335,2.002v0.061c0.939,0.235,1.471,1.038,1.471,2.064c0,1.582-1.31,2.632-3.213,2.632
				C74.601,16.359,73.426,15.21,73.401,13.492z"/>
			<path fill="#FF213A" d="M82.606,10.033h-2.199V8.857h0.357c1.187,0,1.829-0.605,1.915-1.519h1.472v8.909h-1.545V10.033z"/>
			<path fill="#FF213A" d="M87.818,12.96c0-2.026,1.224-3.411,3.263-3.411c1.939,0,3.236,1.298,3.236,3.411
				c0,2.027-1.209,3.398-3.236,3.398C89.127,16.359,87.818,15.074,87.818,12.96z M92.761,12.96c0-1.396-0.655-2.137-1.681-2.137
				c-1.026,0-1.705,0.729-1.705,2.137c0,1.384,0.654,2.125,1.692,2.125C92.081,15.086,92.761,14.37,92.761,12.96z"/>
			<path fill="#FF213A" d="M94.97,12.96c0-2.051,1.284-3.411,3.275-3.411c1.654,0,2.841,1.001,2.928,2.447h-1.507
				c-0.137-0.766-0.718-1.174-1.459-1.174c-1.087,0-1.68,0.853-1.68,2.137c0,1.396,0.667,2.125,1.669,2.125
				c0.851,0,1.407-0.495,1.495-1.223h1.506c-0.099,1.52-1.322,2.496-3.001,2.496C96.244,16.359,94.97,15.011,94.97,12.96z"/>
			<path fill="#FF213A" d="M102.569,14.753v-3.832h-1.212V9.673h1.212V7.82l1.532-0.161v2.014h1.396v1.248h-1.396v3.547
				c0,0.42,0.172,0.519,0.555,0.519h0.841v1.26h-1.371C102.903,16.247,102.569,15.691,102.569,14.753z"/>
			<path fill="#FF213A" d="M105.78,12.96c0-2.026,1.224-3.411,3.262-3.411c1.941,0,3.237,1.298,3.237,3.411
				c0,2.027-1.211,3.398-3.237,3.398C107.089,16.359,105.78,15.074,105.78,12.96z M110.722,12.96c0-1.396-0.654-2.137-1.681-2.137
				c-1.024,0-1.704,0.729-1.704,2.137c0,1.384,0.654,2.125,1.691,2.125C110.042,15.086,110.722,14.37,110.722,12.96z"/>
			<path fill="#FF213A" d="M114.847,15.037h-0.087l-0.062,1.21h-1.483V7.239h1.545v3.646h0.087c0.321-0.804,1.111-1.335,2.163-1.335
				c1.593,0,2.656,1.174,2.656,3.411c0,2.224-1.063,3.411-2.656,3.411C115.958,16.371,115.168,15.827,114.847,15.037z
				 M118.097,12.96c0-1.446-0.668-2.149-1.655-2.149c-1.113,0-1.67,0.877-1.67,1.804v0.692c0,0.926,0.557,1.804,1.67,1.804
				C117.429,15.111,118.097,14.406,118.097,12.96z"/>
			<path fill="#FF213A" d="M120.603,9.673h1.396l0.075,1.1h0.05c0.296-0.84,1.013-1.186,1.865-1.186c0.148,0,0.272,0,0.383,0v1.458
				c-0.098,0-0.248-0.012-0.407-0.012c-1.199,0-1.768,0.593-1.816,1.619v3.595h-1.545V9.673z"/>
			<path fill="#FF213A" d="M124.507,12.997c0-2.112,1.174-3.447,3.089-3.447c2.149,0,3.188,1.557,3.003,3.732h-4.584
				c0.011,1.26,0.654,1.903,1.63,1.903c0.779,0,1.311-0.395,1.459-0.988h1.458c-0.173,1.334-1.348,2.163-2.917,2.163
				C125.656,16.359,124.507,15.024,124.507,12.997z M126.026,12.281h3.054c-0.038-1.062-0.631-1.557-1.483-1.557
				C126.695,10.724,126.113,11.279,126.026,12.281z"/>
			<path fill="#FF213A" d="M133.463,12.306h3.88v1.31h-3.88V12.306z"/>
			<path fill="#FF213A" d="M140.208,11.774c0-2.94,1.322-4.547,3.324-4.547c2.038,0,3.286,1.706,3.286,4.56
				c0,2.953-1.334,4.56-3.311,4.56C141.457,16.347,140.208,14.641,140.208,11.774z M145.274,11.774c0-2.397-0.703-3.237-1.754-3.237
				c-1.075,0-1.768,0.84-1.768,3.237c0,2.41,0.692,3.262,1.768,3.262C144.571,15.037,145.274,14.184,145.274,11.774z"/>
			<path fill="#FF213A" d="M147.361,13.492h1.532c-0.012,0.926,0.631,1.544,1.619,1.544s1.631-0.556,1.631-1.446
				c0-0.877-0.594-1.322-1.445-1.322h-1.051v-1.174h0.939c0.926,0,1.421-0.543,1.421-1.286c0-0.803-0.58-1.26-1.471-1.26
				c-0.977,0-1.557,0.593-1.568,1.507h-1.533c0.013-1.717,1.248-2.83,3.163-2.83c1.805,0,2.991,0.927,2.991,2.373
				c0,0.977-0.531,1.717-1.335,2.002v0.061c0.939,0.235,1.47,1.038,1.47,2.064c0,1.582-1.31,2.632-3.212,2.632
				C148.561,16.359,147.386,15.21,147.361,13.492z"/>
			<path fill="#FF213A" d="M157.256,9.673h1.482l0.062,1.248h0.074c0.371-0.901,1.21-1.372,2.163-1.372
				c1.334,0,2.336,0.767,2.336,2.756v3.941h-1.546v-3.608c0-1.236-0.419-1.816-1.384-1.816c-1.038,0-1.644,0.815-1.644,1.804v3.62
				h-1.544V9.673z"/>
			<path fill="#FF213A" d="M164.249,12.96c0-2.026,1.223-3.411,3.261-3.411c1.94,0,3.237,1.298,3.237,3.411
				c0,2.027-1.21,3.398-3.237,3.398C165.558,16.359,164.249,15.074,164.249,12.96z M169.19,12.96c0-1.396-0.654-2.137-1.681-2.137
				c-1.024,0-1.704,0.729-1.704,2.137c0,1.384,0.655,2.125,1.692,2.125C168.511,15.086,169.19,14.37,169.19,12.96z"/>
			<path fill="#FF213A" d="M170.647,9.661h1.668l1.148,3.782l0.408,1.507h0.05l0.407-1.495l1.149-3.794h1.668l-2.286,6.586h-1.915
				L170.647,9.661z"/>
			<path fill="#FF213A" d="M177.059,12.997c0-2.112,1.173-3.447,3.09-3.447c2.149,0,3.188,1.557,3.002,3.732h-4.584
				c0.011,1.26,0.654,1.903,1.631,1.903c0.778,0,1.31-0.395,1.458-0.988h1.459c-0.174,1.334-1.348,2.163-2.917,2.163
				C178.208,16.359,177.059,15.024,177.059,12.997z M178.578,12.281h3.054c-0.038-1.062-0.631-1.557-1.482-1.557
				C179.247,10.724,178.665,11.279,178.578,12.281z"/>
			<path fill="#FF213A" d="M184.087,9.673h1.495l0.05,1.248h0.073c0.347-0.901,1.174-1.372,2.089-1.372
				c0.952,0,1.768,0.421,2.113,1.508h0.099c0.335-1.001,1.224-1.508,2.236-1.508c1.286,0,2.273,0.767,2.273,2.756v3.941h-1.544
				v-3.608c0-1.236-0.407-1.816-1.321-1.816c-0.989,0-1.57,0.815-1.57,1.804v3.62h-1.557v-3.608c0-1.236-0.408-1.816-1.31-1.816
				c-1.002,0-1.582,0.815-1.582,1.804v3.62h-1.545V9.673z"/>
			<path fill="#FF213A" d="M197.43,15.037h-0.087l-0.062,1.21h-1.483V7.239h1.545v3.646h0.087c0.32-0.804,1.111-1.335,2.163-1.335
				c1.593,0,2.656,1.174,2.656,3.411c0,2.224-1.063,3.411-2.656,3.411C198.542,16.371,197.75,15.827,197.43,15.037z M200.679,12.96
				c0-1.446-0.666-2.149-1.655-2.149c-1.111,0-1.667,0.877-1.667,1.804v0.692c0,0.926,0.556,1.804,1.667,1.804
				C200.013,15.111,200.679,14.406,200.679,12.96z"/>
			<path fill="#FF213A" d="M203.186,9.673h1.396l0.074,1.1h0.05c0.296-0.84,1.013-1.186,1.865-1.186c0.149,0,0.272,0,0.383,0v1.458
				c-0.099,0-0.247-0.012-0.407-0.012c-1.198,0-1.766,0.593-1.816,1.619v3.595h-1.545V9.673z"/>
			<path fill="#FF213A" d="M207.091,12.997c0-2.112,1.173-3.447,3.089-3.447c2.149,0,3.188,1.557,3.002,3.732h-4.584
				c0.012,1.26,0.654,1.903,1.631,1.903c0.777,0,1.31-0.395,1.457-0.988h1.459c-0.174,1.334-1.347,2.163-2.916,2.163
				C208.24,16.359,207.091,15.024,207.091,12.997z M208.61,12.281h3.052c-0.037-1.062-0.63-1.557-1.481-1.557
				C209.278,10.724,208.697,11.279,208.61,12.281z"/>
		</g>
		<g>
			<g>
				<path fill="#FF213A" d="M12.48,48.295c-1.343-4.292-0.963-8.864,1.034-12.542c1.75-3.217,4.599-5.506,8.015-6.446
					c2.663-0.733,5.604-0.593,8.317,0.398c2.144,0.784,4.166,2.092,5.849,3.78c1.968,1.975,3.45,4.446,4.3,7.152
					c2.29,7.309-0.522,14.894-6.565,18.016c0.661,0.554,1.384,1.038,2.163,1.438c1.245,0.633,2.591,1.045,4.012,1.226
					c6.049-4.906,8.354-13.761,5.744-22.114c-0.945-3.022-2.435-5.767-4.43-8.16c-1.471-1.758-3.161-3.274-5.049-4.499
					c-3.268-2.118-6.898-3.239-10.524-3.239c-1.546,0-3.083,0.207-4.562,0.615c-4.454,1.228-8.164,4.219-10.451,8.427
					c-2.677,4.906-3.167,11.034-1.356,16.809c2.688,8.6,9.956,14.884,18.009,15.784c-1.752-1.605-3.226-3.546-4.3-5.693
					C17.897,57.521,14.091,53.443,12.48,48.295z"/>
				<path fill="#FF213A" d="M64.307,37.07c-1.41-4.816-4.561-8.688-8.873-10.896c-2.607-1.336-5.48-2.01-8.534-2.01
					c-2.804,0-5.715,0.594-8.477,1.727c1.301,0.992,2.514,2.12,3.601,3.368c1.466-0.398,2.933-0.601,4.39-0.601
					c2.343,0,4.557,0.521,6.562,1.551c3.354,1.716,5.809,4.741,6.914,8.513c1.347,4.61,0.581,9.906-2.114,14.529
					c-2.039,3.507-5.104,6.403-8.598,8.193c0.034,0.003,0.07,0.006,0.11,0.012c2.078,0.21,4.048,0.714,5.716,1.46
					c2.701-2.095,4.95-4.677,6.689-7.671C65.055,49.48,66.003,42.856,64.307,37.07z"/>
				<path fill="#FF213A" d="M53.723,63.714c-1.803-0.647-4.019-1.078-6.397-1.252c-0.73-0.054-1.463-0.08-2.176-0.08
					c-1.506,0-2.931,0.116-4.226,0.343c-0.389-0.012-0.731-0.031-1.053-0.063c-1.727-0.16-3.367-0.632-4.873-1.404
					c-1.357-0.693-2.555-1.605-3.565-2.709c-4.475-4.867-4.858-12.648-0.954-19.364c1.063-1.833,2.384-3.474,3.924-4.88l0.138-0.125
					l-0.138-0.121c-1.386-1.306-3.025-2.352-4.723-3.017L29.576,31L29.5,31.079c-1.649,1.658-3.087,3.533-4.264,5.566
					c-4.086,7.024-4.669,15.12-1.564,21.656c1.47,3.072,3.719,5.651,6.52,7.461c0.522,0.339,1.059,0.647,1.591,0.919
					c1.913,0.98,3.989,1.624,6.179,1.912c1.945,1.026,4.887,1.749,8.073,1.98c0.732,0.054,1.468,0.081,2.185,0.081h0.006
					c5.246,0,9.134-1.368,9.45-3.321C57.897,66.006,56.456,64.687,53.723,63.714z M50.031,66.955c-0.64,0-1.159-0.521-1.159-1.16
					c0-0.642,0.52-1.161,1.159-1.161c0.638,0,1.161,0.52,1.161,1.161C51.192,66.435,50.668,66.955,50.031,66.955z"/>
			</g>
			<g>
				<g>
					<path fill="#1B0E29" d="M118.336,78.244h2.351c0.042,1.95,1.171,3.164,3.769,3.164c2.141,0,3.565-0.772,3.565-2.387
						c0-1.823-1.026-2.328-4.027-2.829c-3.495-0.607-5.298-1.636-5.298-4.254c0-2.681,2.116-4.358,5.617-4.358
						c3.495,0,5.551,1.781,5.592,4.464h-2.324c-0.064-1.824-1.385-2.706-3.352-2.706c-2.013,0-3.168,0.903-3.168,2.288
						c0,1.694,1.155,2.031,4.087,2.554c2.705,0.441,5.239,1.11,5.239,4.631c0,2.619-2.074,4.401-5.971,4.401
						C120.35,83.212,118.38,81.179,118.336,78.244z"/>
					<path fill="#1B0E29" d="M133.069,80.717v-7.018h-2.094v-1.761h2.094v-3.205l2.157-0.254v3.459h2.452v1.761h-2.452v6.621
						c0,0.732,0.251,0.922,0.94,0.922h1.512v1.779h-2.225C133.633,83.021,133.069,82.205,133.069,80.717z"/>
					<path fill="#1B0E29" d="M139.287,71.938h1.928l0.108,1.97h0.104c0.483-1.426,1.739-2.116,3.205-2.116
						c0.254,0,0.462,0.021,0.652,0.042v2.031c-0.172-0.019-0.424-0.019-0.674-0.019c-1.973,0-3.08,1.024-3.184,2.847v6.328h-2.14
						V71.938z"/>
					<path fill="#1B0E29" d="M145.551,77.469c0-3.71,1.823-5.718,4.527-5.718c1.865,0,3.249,0.941,3.771,2.365h0.125l0.081-2.178
						h2.077v11.083h-2.158v-2.199h-0.125c-0.522,1.425-1.906,2.39-3.771,2.39C147.375,83.212,145.551,81.179,145.551,77.469z
						 M153.955,78.098v-1.256c0-1.697-1.066-3.331-3.125-3.331c-1.843,0-3.057,1.34-3.057,3.958c0,2.6,1.214,3.961,3.057,3.961
						C152.888,81.43,153.955,79.816,153.955,78.098z"/>
					<path fill="#1B0E29" d="M157.853,79.544h2.132c0,1.447,1.05,2.116,2.558,2.116c1.532,0,2.347-0.607,2.347-1.635
						c0-1.152-0.733-1.466-2.575-1.739c-2.788-0.397-4.173-1.129-4.173-3.204c0-2.014,1.765-3.354,4.383-3.354
						c2.66,0,4.295,1.362,4.337,3.479h-2.116c-0.025-1.342-0.904-1.887-2.266-1.887c-1.362,0-2.179,0.61-2.179,1.551
						c0,1.092,0.84,1.427,2.79,1.697c2.575,0.357,3.98,1.088,3.98,3.271c0,2.178-1.827,3.395-4.569,3.395
						C159.589,83.233,157.853,81.744,157.853,79.544z"/>
					<path fill="#1B0E29" d="M171.113,80.843h-0.126l-0.085,2.179h-2.075V67.747h2.16v6.369h0.126
						c0.524-1.402,1.905-2.365,3.769-2.365c2.705,0,4.528,2.031,4.528,5.738c0,3.71-1.823,5.723-4.528,5.723
						C173.018,83.212,171.637,82.27,171.113,80.843z M177.191,77.489c0-2.618-1.219-3.958-3.063-3.958
						c-2.052,0-3.118,1.613-3.118,3.331v1.235c0,1.719,1.066,3.332,3.118,3.332C175.972,81.43,177.191,80.09,177.191,77.489z"/>
					<path fill="#1B0E29" d="M180.6,77.514c0-3.416,2.078-5.742,5.428-5.742c3.228,0,5.406,2.199,5.406,5.718
						c0,3.396-2.077,5.723-5.406,5.723C182.781,83.212,180.6,80.991,180.6,77.514z M189.235,77.489c0-2.493-1.218-3.937-3.207-3.937
						c-1.929,0-3.226,1.402-3.226,3.961c0,2.469,1.257,3.895,3.226,3.895C187.953,81.408,189.235,80.005,189.235,77.489z"/>
					<path fill="#1B0E29" d="M193.069,78.77v-6.831h2.155v6.286c0,2.054,0.753,3.184,2.619,3.184c1.823,0,3.038-1.444,3.038-3.479
						v-5.99h2.16v11.083h-2.058l-0.103-2.241h-0.122c-0.549,1.529-1.994,2.432-3.709,2.432
						C194.536,83.212,193.069,81.704,193.069,78.77z"/>
					<path fill="#1B0E29" d="M205.423,71.938h1.93l0.105,1.97h0.103c0.482-1.426,1.746-2.116,3.21-2.116
						c0.249,0,0.459,0.021,0.649,0.042v2.031c-0.17-0.019-0.418-0.019-0.676-0.019c-1.963,0-3.076,1.024-3.184,2.847v6.328h-2.138
						V71.938z"/>
					<path fill="#1B0E29" d="M212.235,83.546h2.096c0.167,0.984,1.131,1.592,2.538,1.592c1.987,0,3.059-0.794,3.059-2.85v-2.156
						h-0.147c-0.505,1.339-1.866,2.241-3.625,2.241c-2.701,0-4.465-1.93-4.465-5.3c0-3.396,1.801-5.322,4.485-5.322
						c1.763,0,3.1,0.899,3.604,2.239h0.147l0.042-2.052h2.094v10.058c0,3.477-2.116,4.733-5.236,4.733
						C214.163,86.729,212.469,85.516,212.235,83.546z M219.927,77.721l-0.021-1.341c-0.022-1.445-1.051-2.936-2.999-2.936
						c-1.84,0-3,1.322-3,3.629c0,2.345,1.177,3.622,2.976,3.622C218.811,80.695,219.884,79.188,219.927,77.721z"/>
				</g>
			</g>
			<g>
				<path fill="#FF213A" d="M113.452,82.014c0,1.1-0.9,2-2,2H74.664c-1.1,0-2-0.9-2-2V68.158c0-1.1,0.9-2,2-2h36.788
					c1.1,0,2,0.9,2,2V82.014z"/>
			</g>
			<g>
				<path fill="#FFFFFF" d="M76.684,80.8c0-3.154,4.272-6.147,4.272-8.67c0-0.902-0.251-1.318-0.812-1.318
					c-0.794,0-0.885,1.012-0.828,2.111h-2.791c-0.151-2.76,1.17-4.509,3.619-4.509c2.253,0,3.677,1.119,3.677,3.681
					c0,3.117-3.515,5.876-3.584,7.119h3.674v2.361h-7.228V80.8z"/>
				<path fill="#FFFFFF" d="M84.614,75.085c0-4.904,1.536-6.652,3.969-6.652c2.429,0,3.963,1.748,3.963,6.652
					c0,4.92-1.534,6.669-3.963,6.669C86.15,81.754,84.614,80.005,84.614,75.085z M89.683,75.085c0-3.244-0.272-4.273-1.101-4.273
					c-0.83,0-1.1,1.029-1.1,4.273c0,3.263,0.27,4.291,1.1,4.291C89.411,79.376,89.683,78.348,89.683,75.085z"/>
				<path fill="#FFFFFF" d="M93.417,80.8c0-3.154,4.268-6.147,4.268-8.67c0-0.902-0.252-1.318-0.809-1.318
					c-0.795,0-0.882,1.012-0.828,2.111h-2.796c-0.143-2.76,1.173-4.509,3.624-4.509c2.249,0,3.676,1.119,3.676,3.681
					c0,3.117-3.515,5.876-3.585,7.119h3.675v2.361h-7.225V80.8z"/>
				<path fill="#FFFFFF" d="M105.527,78.727h-4.397v-2.252l3.821-7.896h3.462v7.678h1.192v2.47h-1.192v2.849h-2.865L105.527,78.727z
					 M105.547,76.257v-4.147l-1.894,4.147H105.547z"/>
			</g>
			<path fill="#FF213A" d="M183.909,56.812c0,0.927-0.75,1.676-1.674,1.676c-0.929,0-1.678-0.75-1.678-1.676
				c0-0.925,0.749-1.677,1.678-1.677C183.159,55.136,183.909,55.888,183.909,56.812z"/>
			<g>
				<g>
					<g>
						<g>
							<path fill="#1B0E29" d="M72.721,23.781h8.998c7.045,0,10.521,4.046,10.521,11.952c0,7.955-3.476,11.953-10.521,11.953h-1.479
								v10.808h-7.52V23.781z M80.241,30.4v10.714h1.236c2.431,0,3.146-1.954,3.146-5.478c0-4-1.097-5.236-3.146-5.236H80.241z"/>
						</g>
					</g>
					<g>
						<g>
							<path fill="#1B0E29" d="M98.481,45.303l-7.049-21.522h8.24l2.568,13.81h0.286l2.714-13.81h8.142l-6.999,21.522v13.19h-7.902
								V45.303z"/>
						</g>
					</g>
					<g>
						<g>
							<path fill="#1B0E29" d="M112.333,41.114c0-11.335,2.524-17.81,10.57-17.81c6.335,0,9.619,3.571,10.048,12.857h-7.144
								c-0.28-4.382-0.856-6.286-2.904-6.286c-2.426,0-2.953,3.713-2.953,11.238c0,8.001,0.671,11.238,2.953,11.238
								c2.146,0,2.667-2.188,2.904-6.475h7.144c-0.286,9.523-3.81,13.046-10.573,13.046
								C114.811,58.923,112.333,52.496,112.333,41.114z"/>
						</g>
					</g>
					<g>
						<g>
							<path fill="#1B0E29" d="M135.287,41.114c0-11.43,2.564-17.81,10.564-17.81c8.007,0,10.527,6.427,10.527,17.81
								c0,11.428-2.521,17.809-10.527,17.809C137.851,58.923,135.287,52.59,135.287,41.114z M148.807,41.114
								c0-8.095-0.714-11.238-2.956-11.238c-2.425,0-2.952,3.713-2.952,11.238c0,8.047,0.672,11.238,2.952,11.238
								C148.332,52.352,148.807,48.541,148.807,41.114z"/>
						</g>
					</g>
					<g>
						<g>
							<path fill="#1B0E29" d="M158.756,23.781h8.048l4.762,19.378h0.333l-0.381-10.331v-9.048h6.909v34.712h-7.957l-4.903-19.187
								h-0.283l0.377,9.951v9.236h-6.904V23.781z"/>
						</g>
					</g>
				</g>
			</g>
			<g>
				<path fill="#1B0E29" d="M186.023,23.856h15.139v6.619h-7.33v8.333h6.431v6.288h-6.431v13.473h-7.809V23.856z"/>
				<path fill="#1B0E29" d="M203.211,23.856h9.145c6.332,0,10.52,2.43,10.52,9.954c0,4.476-1.568,7.333-3.998,8.239v0.331
					c2.571,0.478,3.475,3.382,3.475,7.001v5.667c0,1.429,0.1,2.475,0.336,3.521h-7.62c-0.288-0.998-0.38-2.379-0.38-3.094v-5.332
					c0-2.144-0.289-4.001-2.001-4.001h-1.953v12.427h-7.522V23.856z M211.968,40.237c2.622,0,3.337-1.857,3.337-4.903
					c0-3.43-0.954-4.859-3.381-4.859h-1.19v9.762H211.968z"/>
			</g>
		</g>
	</g>
</g>
</svg>
